<?xml version="1.0" encoding="UTF-8" standalone="no"?>
<!DOCTYPE svg PUBLIC "-//W3C//DTD SVG 1.1//EN" "http://www.w3.org/Graphics/SVG/1.1/DTD/svg11.dtd">
<svg width="100%" height="100%" viewBox="0 0 756 443" version="1.1" xmlns="http://www.w3.org/2000/svg" xmlns:xlink="http://www.w3.org/1999/xlink" xml:space="preserve" xmlns:serif="http://www.serif.com/" style="fill-rule:evenodd;clip-rule:evenodd;stroke-linejoin:round;stroke-miterlimit:2;">
    <g transform="matrix(1,0,0,1,-133,-395)">
        <g id="layer-text" transform="matrix(1.50588,0,0,1.50588,0,0)">
            <g id="text-blend" transform="matrix(1.00304,0,0,0.998216,336.639,383.315)">
                <path d="M-158.614,0L-213.411,0L-213.411,-120.914L-154.676,-120.914C-139.856,-120.695 -129.356,-116.402 -123.176,-108.035C-119.458,-102.895 -117.598,-96.742 -117.598,-89.578C-117.598,-82.195 -119.458,-76.262 -123.176,-71.777C-125.255,-69.262 -128.317,-66.965 -132.364,-64.887C-126.184,-62.645 -121.522,-59.09 -118.378,-54.223C-115.233,-49.355 -113.661,-43.449 -113.661,-36.504C-113.661,-29.34 -115.466,-22.914 -119.075,-17.227C-121.372,-13.453 -124.243,-10.281 -127.688,-7.711C-131.571,-4.758 -136.151,-2.734 -141.428,-1.641C-146.706,-0.547 -152.434,0 -158.614,0ZM-159.188,-53.238L-189.294,-53.238L-189.294,-21L-159.598,-21C-154.294,-21 -150.165,-21.711 -147.212,-23.133C-141.852,-25.758 -139.173,-30.789 -139.173,-38.227C-139.173,-44.516 -141.77,-48.836 -146.966,-51.188C-149.864,-52.5 -153.938,-53.184 -159.188,-53.238ZM-146.637,-76.289C-143.356,-78.258 -141.716,-81.785 -141.716,-86.871C-141.716,-92.504 -143.903,-96.223 -148.278,-98.027C-152.051,-99.285 -156.864,-99.914 -162.716,-99.914L-189.294,-99.914L-189.294,-73.254L-159.598,-73.254C-154.294,-73.254 -149.973,-74.266 -146.637,-76.289Z" style="fill:rgb(128,19,148);fill-rule:nonzero;"/>
                <rect x="-97.251" y="-120.914" width="23.379" height="120.914" style="fill:rgb(128,19,148);fill-rule:nonzero;"/>
                <path d="M22.107,-26.25C21.506,-20.945 18.744,-15.559 13.822,-10.09C6.166,-1.395 -4.553,2.953 -18.334,2.953C-29.709,2.953 -39.744,-0.711 -48.439,-8.039C-57.135,-15.367 -61.482,-27.289 -61.482,-43.805C-61.482,-59.281 -57.559,-71.148 -49.711,-79.406C-41.863,-87.664 -31.678,-91.793 -19.154,-91.793C-11.717,-91.793 -5.018,-90.398 0.943,-87.609C6.904,-84.82 11.826,-80.418 15.709,-74.402C19.209,-69.098 21.479,-62.945 22.518,-55.945C23.119,-51.844 23.365,-45.938 23.256,-38.227L-37.939,-38.227C-37.611,-29.258 -34.795,-22.969 -29.49,-19.359C-26.264,-17.117 -22.381,-15.996 -17.842,-15.996C-13.029,-15.996 -9.119,-17.363 -6.111,-20.098C-4.471,-21.574 -3.021,-23.625 -1.764,-26.25L22.107,-26.25ZM-1.025,-53.648C-1.408,-59.828 -3.281,-64.518 -6.645,-67.717C-10.008,-70.916 -14.178,-72.516 -19.154,-72.516C-24.568,-72.516 -28.766,-70.82 -31.746,-67.43C-34.727,-64.039 -36.6,-59.445 -37.365,-53.648L-1.025,-53.648Z" style="fill:rgb(128,19,148);fill-rule:nonzero;"/>
                <path d="M77.728,-72.105C69.798,-72.105 64.357,-68.742 61.404,-62.016C59.872,-58.461 59.107,-53.922 59.107,-48.398L59.107,0L35.81,0L35.81,-89.25L58.369,-89.25L58.369,-76.207C61.376,-80.801 64.22,-84.109 66.9,-86.133C71.712,-89.742 77.81,-91.547 85.193,-91.547C94.435,-91.547 101.995,-89.127 107.874,-84.287C113.753,-79.447 116.693,-71.422 116.693,-60.211L116.693,0L92.74,0L92.74,-54.387C92.74,-59.09 92.111,-62.699 90.853,-65.215C88.556,-69.809 84.181,-72.105 77.728,-72.105Z" style="fill:rgb(128,19,148);fill-rule:nonzero;"/>
                <path d="M216.282,-120.75L216.282,0L193.559,0L193.559,-12.387C190.223,-7.082 186.423,-3.227 182.157,-0.82C177.891,1.586 172.587,2.789 166.243,2.789C155.798,2.789 147.007,-1.436 139.87,-9.885C132.733,-18.334 129.165,-29.176 129.165,-42.41C129.165,-57.668 132.678,-69.672 139.706,-78.422C146.733,-87.172 156.126,-91.547 167.884,-91.547C173.298,-91.547 178.11,-90.357 182.321,-87.979C186.532,-85.6 189.95,-82.305 192.575,-78.094L192.575,-120.75L216.282,-120.75ZM153.282,-44.133C153.282,-35.875 154.923,-29.285 158.204,-24.363C161.43,-19.387 166.352,-16.898 172.969,-16.898C179.587,-16.898 184.618,-19.359 188.063,-24.281C191.509,-29.203 193.231,-35.574 193.231,-43.395C193.231,-54.332 190.469,-62.152 184.946,-66.855C181.555,-69.699 177.618,-71.121 173.134,-71.121C166.298,-71.121 161.28,-68.537 158.081,-63.369C154.882,-58.201 153.282,-51.789 153.282,-44.133Z" style="fill:rgb(128,19,148);fill-rule:nonzero;"/>
            </g>
            <g id="text-modes" transform="matrix(1.00304,0,0,0.998216,336.639,553.011)">
                <path d="M-223.378,0L-246.921,0L-246.921,-120.914L-210.171,-120.914L-188.186,-25.84L-166.366,-120.914L-130.026,-120.914L-130.026,0L-153.569,0L-153.569,-81.785C-153.569,-84.137 -153.542,-87.432 -153.487,-91.67C-153.432,-95.908 -153.405,-99.176 -153.405,-101.473L-176.292,0L-200.819,0L-223.542,-101.473C-223.542,-99.176 -223.514,-95.908 -223.46,-91.67C-223.405,-87.432 -223.378,-84.137 -223.378,-81.785L-223.378,0Z" style="fill:rgb(128,19,148);fill-rule:nonzero;"/>
                <path d="M-37.245,-78.094C-29.699,-68.633 -25.925,-57.449 -25.925,-44.543C-25.925,-31.418 -29.699,-20.193 -37.245,-10.869C-44.792,-1.545 -56.249,3.117 -71.617,3.117C-86.984,3.117 -98.441,-1.545 -105.988,-10.869C-113.535,-20.193 -117.308,-31.418 -117.308,-44.543C-117.308,-57.449 -113.535,-68.633 -105.988,-78.094C-98.441,-87.555 -86.984,-92.285 -71.617,-92.285C-56.249,-92.285 -44.792,-87.555 -37.245,-78.094ZM-71.699,-72.516C-78.535,-72.516 -83.798,-70.096 -87.49,-65.256C-91.181,-60.416 -93.027,-53.512 -93.027,-44.543C-93.027,-35.574 -91.181,-28.656 -87.49,-23.789C-83.798,-18.922 -78.535,-16.488 -71.699,-16.488C-64.863,-16.488 -59.613,-18.922 -55.949,-23.789C-52.285,-28.656 -50.452,-35.574 -50.452,-44.543C-50.452,-53.512 -52.285,-60.416 -55.949,-65.256C-59.613,-70.096 -64.863,-72.516 -71.699,-72.516Z" style="fill:rgb(128,19,148);fill-rule:nonzero;"/>
                <path d="M68.824,-120.75L68.824,0L46.102,0L46.102,-12.387C42.766,-7.082 38.965,-3.227 34.699,-0.82C30.434,1.586 25.129,2.789 18.785,2.789C8.34,2.789 -0.451,-1.436 -7.588,-9.885C-14.725,-18.334 -18.293,-29.176 -18.293,-42.41C-18.293,-57.668 -14.779,-69.672 -7.752,-78.422C-0.725,-87.172 8.668,-91.547 20.426,-91.547C25.84,-91.547 30.652,-90.357 34.863,-87.979C39.074,-85.6 42.492,-82.305 45.117,-78.094L45.117,-120.75L68.824,-120.75ZM5.824,-44.133C5.824,-35.875 7.465,-29.285 10.746,-24.363C13.973,-19.387 18.895,-16.898 25.512,-16.898C32.129,-16.898 37.16,-19.359 40.605,-24.281C44.051,-29.203 45.773,-35.574 45.773,-43.395C45.773,-54.332 43.012,-62.152 37.488,-66.855C34.098,-69.699 30.16,-71.121 25.676,-71.121C18.84,-71.121 13.822,-68.537 10.623,-63.369C7.424,-58.201 5.824,-51.789 5.824,-44.133Z" style="fill:rgb(128,19,148);fill-rule:nonzero;"/>
                <path d="M163.245,-26.25C162.644,-20.945 159.882,-15.559 154.96,-10.09C147.304,-1.395 136.585,2.953 122.804,2.953C111.429,2.953 101.394,-0.711 92.699,-8.039C84.003,-15.367 79.656,-27.289 79.656,-43.805C79.656,-59.281 83.579,-71.148 91.427,-79.406C99.275,-87.664 109.46,-91.793 121.984,-91.793C129.421,-91.793 136.12,-90.398 142.081,-87.609C148.042,-84.82 152.964,-80.418 156.847,-74.402C160.347,-69.098 162.617,-62.945 163.656,-55.945C164.257,-51.844 164.503,-45.938 164.394,-38.227L103.199,-38.227C103.527,-29.258 106.343,-22.969 111.648,-19.359C114.874,-17.117 118.757,-15.996 123.296,-15.996C128.109,-15.996 132.019,-17.363 135.027,-20.098C136.667,-21.574 138.117,-23.625 139.374,-26.25L163.245,-26.25ZM140.113,-53.648C139.73,-59.828 137.857,-64.518 134.494,-67.717C131.13,-70.916 126.96,-72.516 121.984,-72.516C116.57,-72.516 112.372,-70.82 109.392,-67.43C106.411,-64.039 104.538,-59.445 103.773,-53.648L140.113,-53.648Z" style="fill:rgb(128,19,148);fill-rule:nonzero;"/>
                <path d="M238.389,-85.313C245.389,-80.828 249.409,-73.117 250.448,-62.18L227.069,-62.18C226.741,-65.188 225.893,-67.566 224.526,-69.316C221.956,-72.488 217.581,-74.074 211.401,-74.074C206.315,-74.074 202.692,-73.281 200.532,-71.695C198.372,-70.109 197.292,-68.25 197.292,-66.117C197.292,-63.438 198.44,-61.496 200.737,-60.293C203.034,-59.035 211.155,-56.875 225.1,-53.813C234.397,-51.625 241.37,-48.316 246.018,-43.887C250.612,-39.402 252.909,-33.797 252.909,-27.07C252.909,-18.211 249.614,-10.979 243.024,-5.373C236.434,0.232 226.249,3.035 212.468,3.035C198.413,3.035 188.036,0.068 181.337,-5.865C174.637,-11.799 171.288,-19.359 171.288,-28.547L194.995,-28.547C195.487,-24.391 196.553,-21.438 198.194,-19.688C201.093,-16.57 206.452,-15.012 214.272,-15.012C218.866,-15.012 222.516,-15.695 225.223,-17.063C227.93,-18.43 229.284,-20.48 229.284,-23.215C229.284,-25.84 228.19,-27.836 226.003,-29.203C223.815,-30.57 215.694,-32.922 201.639,-36.258C191.522,-38.773 184.385,-41.918 180.229,-45.691C176.073,-49.41 173.995,-54.77 173.995,-61.77C173.995,-70.027 177.235,-77.123 183.716,-83.057C190.196,-88.99 199.315,-91.957 211.073,-91.957C222.229,-91.957 231.335,-89.742 238.389,-85.313Z" style="fill:rgb(128,19,148);fill-rule:nonzero;"/>
            </g>
        </g>
    </g>
</svg>
